<svg xmlns="http://www.w3.org/2000/svg" xmlns:xlink="http://www.w3.org/1999/xlink" width="1080" zoomAndPan="magnify" viewBox="0 0 810 809.999993" height="1080" preserveAspectRatio="xMidYMid meet" version="1.0"><defs><g/><clipPath id="650a3ec639"><path d="M 217.054688 332 L 554 332 L 554 525 L 217.054688 525 Z M 217.054688 332 " clip-rule="nonzero"/></clipPath><clipPath id="13c09484f7"><path d="M 528 462 L 592.804688 462 L 592.804688 532 L 528 532 Z M 528 462 " clip-rule="nonzero"/></clipPath></defs><g clip-path="url(#650a3ec639)"><path fill="#ffffff" d="M 217.054688 523.675781 C 218.234375 520.695312 218.90625 518.59375 219.878906 516.613281 C 225.40625 505.394531 231.320312 494.328125 236.46875 482.933594 C 238.777344 477.804688 241.804688 476.203125 247.28125 476.21875 C 316.085938 476.359375 384.890625 476.265625 453.710938 476.296875 C 470.472656 476.296875 485.035156 471.273438 495.378906 457.589844 C 506.898438 442.367188 509.0625 425.445312 500.699219 408.246094 C 492.082031 390.542969 477.078125 381.441406 457.445312 381.15625 C 431.425781 380.796875 405.402344 381.015625 379.382812 381.03125 C 386.820312 365.980469 395.84375 347.761719 403.03125 333.242188 C 422.476562 332.992188 441.953125 332.535156 461.367188 333.414062 C 494.40625 334.921875 520.945312 349.503906 539.226562 377.078125 C 561.625 410.867188 557.324219 457.558594 530.171875 489.839844 C 510.679688 513.019531 485.726562 524.351562 455.671875 524.382812 C 378.816406 524.429688 301.976562 524.289062 225.121094 524.179688 C 222.847656 524.164062 220.570312 523.898438 217.054688 523.675781 Z M 217.054688 523.675781 " fill-opacity="1" fill-rule="nonzero"/></g><path fill="#ffffff" d="M 260.136719 452.285156 C 323.949219 452.332031 387.761719 452.347656 451.574219 452.363281 C 454.179688 452.363281 456.800781 452.394531 459.359375 452.078125 C 468.933594 450.886719 475.492188 445.519531 478.773438 436.636719 C 484.972656 419.90625 472.777344 404.304688 453.523438 404.257812 C 415.480469 404.195312 377.421875 404.289062 339.375 404.320312 C 336.597656 404.320312 333.804688 404.320312 329.316406 404.320312 C 353.675781 355.089844 377.402344 307.144531 401.808594 257.847656 C 403.832031 261.535156 405.027344 263.527344 406.046875 265.585938 C 413.722656 280.871094 421.300781 296.21875 429.132812 311.410156 L 482.320312 311.410156 C 464.742188 276.226562 447.164062 241.054688 429.351562 206.007812 L 374.734375 206.007812 C 335.1875 285.53125 295.464844 364.976562 255.804688 444.453125 C 254.722656 446.617188 253.890625 448.925781 252.632812 451.90625 C 255.960938 452.078125 258.050781 452.269531 260.136719 452.285156 Z M 260.136719 452.285156 " fill-opacity="1" fill-rule="nonzero"/><g clip-path="url(#13c09484f7)"><path fill="#ffffff" d="M 592.886719 531.648438 C 581.132812 508.046875 570.082031 485.886719 558.515625 462.703125 C 557.089844 465.058594 556.257812 465.9375 555.972656 466.972656 C 551.753906 482.808594 542.664062 495.460938 530.597656 506.210938 C 529.734375 506.980469 528.746094 507.828125 528.304688 508.863281 C 527.128906 511.59375 533.625 524.792969 538.757812 531.664062 L 592.886719 531.664062 Z M 592.886719 531.648438 " fill-opacity="1" fill-rule="nonzero"/></g><g fill="#ffffff" fill-opacity="1"><g transform="translate(195.5939, 590.145878)"><g><path d="M 27.140625 -6.75 L 12.890625 -6.75 L 10.609375 0 L 0.875 0 L 14.6875 -38.171875 L 25.453125 -38.171875 L 39.265625 0 L 29.421875 0 Z M 24.734375 -13.921875 L 20.015625 -27.890625 L 15.328125 -13.921875 Z M 24.734375 -13.921875 "/></g></g></g><g fill="#ffffff" fill-opacity="1"><g transform="translate(235.668269, 590.145878)"><g><path d="M 26.484375 -19.578125 C 28.691406 -19.109375 30.46875 -18.007812 31.8125 -16.28125 C 33.15625 -14.5625 33.828125 -12.597656 33.828125 -10.390625 C 33.828125 -7.191406 32.710938 -4.660156 30.484375 -2.796875 C 28.253906 -0.929688 25.144531 0 21.15625 0 L 3.375 0 L 3.375 -38.171875 L 20.546875 -38.171875 C 24.429688 -38.171875 27.46875 -37.28125 29.65625 -35.5 C 31.851562 -33.726562 32.953125 -31.320312 32.953125 -28.28125 C 32.953125 -26.03125 32.363281 -24.160156 31.1875 -22.671875 C 30.007812 -21.179688 28.441406 -20.148438 26.484375 -19.578125 Z M 12.671875 -22.734375 L 18.765625 -22.734375 C 20.285156 -22.734375 21.453125 -23.066406 22.265625 -23.734375 C 23.078125 -24.398438 23.484375 -25.390625 23.484375 -26.703125 C 23.484375 -28.003906 23.078125 -29 22.265625 -29.6875 C 21.453125 -30.375 20.285156 -30.71875 18.765625 -30.71875 L 12.671875 -30.71875 Z M 19.515625 -7.5 C 21.078125 -7.5 22.285156 -7.851562 23.140625 -8.5625 C 23.992188 -9.269531 24.421875 -10.296875 24.421875 -11.640625 C 24.421875 -12.972656 23.972656 -14.019531 23.078125 -14.78125 C 22.191406 -15.550781 20.96875 -15.9375 19.40625 -15.9375 L 12.671875 -15.9375 L 12.671875 -7.5 Z M 19.515625 -7.5 "/></g></g></g><g fill="#ffffff" fill-opacity="1"><g transform="translate(271.501389, 590.145878)"><g><path d="M 26.484375 -19.578125 C 28.691406 -19.109375 30.46875 -18.007812 31.8125 -16.28125 C 33.15625 -14.5625 33.828125 -12.597656 33.828125 -10.390625 C 33.828125 -7.191406 32.710938 -4.660156 30.484375 -2.796875 C 28.253906 -0.929688 25.144531 0 21.15625 0 L 3.375 0 L 3.375 -38.171875 L 20.546875 -38.171875 C 24.429688 -38.171875 27.46875 -37.28125 29.65625 -35.5 C 31.851562 -33.726562 32.953125 -31.320312 32.953125 -28.28125 C 32.953125 -26.03125 32.363281 -24.160156 31.1875 -22.671875 C 30.007812 -21.179688 28.441406 -20.148438 26.484375 -19.578125 Z M 12.671875 -22.734375 L 18.765625 -22.734375 C 20.285156 -22.734375 21.453125 -23.066406 22.265625 -23.734375 C 23.078125 -24.398438 23.484375 -25.390625 23.484375 -26.703125 C 23.484375 -28.003906 23.078125 -29 22.265625 -29.6875 C 21.453125 -30.375 20.285156 -30.71875 18.765625 -30.71875 L 12.671875 -30.71875 Z M 19.515625 -7.5 C 21.078125 -7.5 22.285156 -7.851562 23.140625 -8.5625 C 23.992188 -9.269531 24.421875 -10.296875 24.421875 -11.640625 C 24.421875 -12.972656 23.972656 -14.019531 23.078125 -14.78125 C 22.191406 -15.550781 20.96875 -15.9375 19.40625 -15.9375 L 12.671875 -15.9375 L 12.671875 -7.5 Z M 19.515625 -7.5 "/></g></g></g><g fill="#ffffff" fill-opacity="1"><g transform="translate(307.334509, 590.145878)"><g><path d="M 27.140625 -6.75 L 12.890625 -6.75 L 10.609375 0 L 0.875 0 L 14.6875 -38.171875 L 25.453125 -38.171875 L 39.265625 0 L 29.421875 0 Z M 24.734375 -13.921875 L 20.015625 -27.890625 L 15.328125 -13.921875 Z M 24.734375 -13.921875 "/></g></g></g><g fill="#ffffff" fill-opacity="1"><g transform="translate(347.408879, 590.145878)"><g><path d="M 17.1875 0.375 C 14.394531 0.375 11.890625 -0.078125 9.671875 -0.984375 C 7.460938 -1.890625 5.695312 -3.226562 4.375 -5 C 3.050781 -6.78125 2.351562 -8.921875 2.28125 -11.421875 L 12.1875 -11.421875 C 12.320312 -10.003906 12.804688 -8.921875 13.640625 -8.171875 C 14.484375 -7.429688 15.570312 -7.0625 16.90625 -7.0625 C 18.289062 -7.0625 19.378906 -7.378906 20.171875 -8.015625 C 20.972656 -8.648438 21.375 -9.53125 21.375 -10.65625 C 21.375 -11.601562 21.054688 -12.382812 20.421875 -13 C 19.785156 -13.613281 19.003906 -14.117188 18.078125 -14.515625 C 17.148438 -14.910156 15.835938 -15.363281 14.140625 -15.875 C 11.671875 -16.632812 9.65625 -17.394531 8.09375 -18.15625 C 6.539062 -18.914062 5.203125 -20.039062 4.078125 -21.53125 C 2.953125 -23.019531 2.390625 -24.957031 2.390625 -27.34375 C 2.390625 -30.894531 3.675781 -33.675781 6.25 -35.6875 C 8.820312 -37.707031 12.175781 -38.71875 16.3125 -38.71875 C 20.519531 -38.71875 23.910156 -37.707031 26.484375 -35.6875 C 29.054688 -33.675781 30.429688 -30.878906 30.609375 -27.296875 L 20.546875 -27.296875 C 20.472656 -28.523438 20.019531 -29.492188 19.1875 -30.203125 C 18.351562 -30.910156 17.285156 -31.265625 15.984375 -31.265625 C 14.859375 -31.265625 13.953125 -30.960938 13.265625 -30.359375 C 12.578125 -29.765625 12.234375 -28.90625 12.234375 -27.78125 C 12.234375 -26.550781 12.8125 -25.59375 13.96875 -24.90625 C 15.132812 -24.21875 16.945312 -23.472656 19.40625 -22.671875 C 21.875 -21.835938 23.878906 -21.039062 25.421875 -20.28125 C 26.960938 -19.519531 28.296875 -18.414062 29.421875 -16.96875 C 30.546875 -15.519531 31.109375 -13.648438 31.109375 -11.359375 C 31.109375 -9.191406 30.550781 -7.21875 29.4375 -5.4375 C 28.332031 -3.65625 26.726562 -2.238281 24.625 -1.1875 C 22.53125 -0.144531 20.050781 0.375 17.1875 0.375 Z M 17.1875 0.375 "/></g></g></g><g fill="#ffffff" fill-opacity="1"><g transform="translate(380.849497, 590.145878)"><g/></g></g><g fill="#ffffff" fill-opacity="1"><g transform="translate(392.376993, 590.145878)"><g><path d="M 17.671875 -38.171875 C 21.691406 -38.171875 25.207031 -37.375 28.21875 -35.78125 C 31.226562 -34.1875 33.554688 -31.945312 35.203125 -29.0625 C 36.859375 -26.175781 37.6875 -22.847656 37.6875 -19.078125 C 37.6875 -15.347656 36.859375 -12.03125 35.203125 -9.125 C 33.554688 -6.226562 31.21875 -3.984375 28.1875 -2.390625 C 25.164062 -0.796875 21.660156 0 17.671875 0 L 3.375 0 L 3.375 -38.171875 Z M 17.078125 -8.046875 C 20.585938 -8.046875 23.320312 -9.003906 25.28125 -10.921875 C 27.238281 -12.847656 28.21875 -15.566406 28.21875 -19.078125 C 28.21875 -22.597656 27.238281 -25.335938 25.28125 -27.296875 C 23.320312 -29.253906 20.585938 -30.234375 17.078125 -30.234375 L 12.671875 -30.234375 L 12.671875 -8.046875 Z M 17.078125 -8.046875 "/></g></g></g><g fill="#ffffff" fill-opacity="1"><g transform="translate(431.907608, 590.145878)"><g><path d="M 12.671875 -30.71875 L 12.671875 -23 L 25.125 -23 L 25.125 -15.828125 L 12.671875 -15.828125 L 12.671875 -7.453125 L 26.75 -7.453125 L 26.75 0 L 3.375 0 L 3.375 -38.171875 L 26.75 -38.171875 L 26.75 -30.71875 Z M 12.671875 -30.71875 "/></g></g></g><g fill="#ffffff" fill-opacity="1"><g transform="translate(461.324461, 590.145878)"><g><path d="M 39.203125 -38.171875 L 25.671875 0 L 14.03125 0 L 0.484375 -38.171875 L 10.390625 -38.171875 L 19.84375 -9.359375 L 29.359375 -38.171875 Z M 39.203125 -38.171875 "/></g></g></g><g fill="#ffffff" fill-opacity="1"><g transform="translate(501.0182, 590.145878)"><g/></g></g><g fill="#ffffff" fill-opacity="1"><g transform="translate(512.545696, 590.145878)"><g><path d="M 12.671875 -7.171875 L 24.84375 -7.171875 L 24.84375 0 L 3.375 0 L 3.375 -38.171875 L 12.671875 -38.171875 Z M 12.671875 -7.171875 "/></g></g></g><g fill="#ffffff" fill-opacity="1"><g transform="translate(538.482585, 590.145878)"><g><path d="M 27.140625 -6.75 L 12.890625 -6.75 L 10.609375 0 L 0.875 0 L 14.6875 -38.171875 L 25.453125 -38.171875 L 39.265625 0 L 29.421875 0 Z M 24.734375 -13.921875 L 20.015625 -27.890625 L 15.328125 -13.921875 Z M 24.734375 -13.921875 "/></g></g></g><g fill="#ffffff" fill-opacity="1"><g transform="translate(578.556954, 590.145878)"><g><path d="M 26.484375 -19.578125 C 28.691406 -19.109375 30.46875 -18.007812 31.8125 -16.28125 C 33.15625 -14.5625 33.828125 -12.597656 33.828125 -10.390625 C 33.828125 -7.191406 32.710938 -4.660156 30.484375 -2.796875 C 28.253906 -0.929688 25.144531 0 21.15625 0 L 3.375 0 L 3.375 -38.171875 L 20.546875 -38.171875 C 24.429688 -38.171875 27.46875 -37.28125 29.65625 -35.5 C 31.851562 -33.726562 32.953125 -31.320312 32.953125 -28.28125 C 32.953125 -26.03125 32.363281 -24.160156 31.1875 -22.671875 C 30.007812 -21.179688 28.441406 -20.148438 26.484375 -19.578125 Z M 12.671875 -22.734375 L 18.765625 -22.734375 C 20.285156 -22.734375 21.453125 -23.066406 22.265625 -23.734375 C 23.078125 -24.398438 23.484375 -25.390625 23.484375 -26.703125 C 23.484375 -28.003906 23.078125 -29 22.265625 -29.6875 C 21.453125 -30.375 20.285156 -30.71875 18.765625 -30.71875 L 12.671875 -30.71875 Z M 19.515625 -7.5 C 21.078125 -7.5 22.285156 -7.851562 23.140625 -8.5625 C 23.992188 -9.269531 24.421875 -10.296875 24.421875 -11.640625 C 24.421875 -12.972656 23.972656 -14.019531 23.078125 -14.78125 C 22.191406 -15.550781 20.96875 -15.9375 19.40625 -15.9375 L 12.671875 -15.9375 L 12.671875 -7.5 Z M 19.515625 -7.5 "/></g></g></g></svg>