<svg xmlns="http://www.w3.org/2000/svg" xmlns:xlink="http://www.w3.org/1999/xlink" width="1080" zoomAndPan="magnify" viewBox="0 0 810 809.999993" height="1080" preserveAspectRatio="xMidYMid meet" version="1.0"><defs><g/><clipPath id="1b9fd86c0f"><path d="M 217.054688 332 L 554 332 L 554 525 L 217.054688 525 Z M 217.054688 332 " clip-rule="nonzero"/></clipPath><clipPath id="2c23d0f3bf"><path d="M 528 462 L 592.804688 462 L 592.804688 532 L 528 532 Z M 528 462 " clip-rule="nonzero"/></clipPath></defs><g clip-path="url(#1b9fd86c0f)"><path fill="#000000" d="M 217.054688 523.847656 C 218.230469 520.867188 218.90625 518.761719 219.878906 516.78125 C 225.402344 505.554688 231.316406 494.484375 236.460938 483.085938 C 238.769531 477.949219 241.796875 476.347656 247.273438 476.363281 C 316.050781 476.503906 384.832031 476.410156 453.628906 476.441406 C 470.382812 476.441406 484.945312 471.417969 495.28125 457.722656 C 506.796875 442.492188 508.964844 425.566406 500.601562 408.355469 C 491.988281 390.640625 476.988281 381.535156 457.363281 381.25 C 431.351562 380.890625 405.339844 381.109375 379.324219 381.125 C 386.761719 366.066406 395.785156 347.835938 402.96875 333.3125 C 422.40625 333.058594 441.878906 332.605469 461.285156 333.484375 C 494.308594 334.992188 520.839844 349.578125 539.117188 377.167969 C 561.507812 410.976562 557.207031 457.691406 530.066406 489.992188 C 510.578125 513.1875 485.632812 524.523438 455.589844 524.554688 C 378.761719 524.601562 301.949219 524.460938 225.121094 524.351562 C 222.84375 524.335938 220.570312 524.070312 217.054688 523.847656 Z M 217.054688 523.847656 " fill-opacity="1" fill-rule="nonzero"/></g><path fill="#000000" d="M 260.121094 452.417969 C 323.914062 452.464844 387.703125 452.480469 451.496094 452.496094 C 454.097656 452.496094 456.71875 452.527344 459.277344 452.210938 C 468.847656 451.019531 475.40625 445.648438 478.683594 436.761719 C 484.882812 420.023438 472.691406 404.414062 453.441406 404.367188 C 415.410156 404.304688 377.363281 404.398438 339.335938 404.429688 C 336.558594 404.429688 333.765625 404.429688 329.277344 404.429688 C 353.628906 355.167969 377.347656 307.199219 401.746094 257.875 C 403.769531 261.566406 404.960938 263.558594 405.980469 265.617188 C 413.652344 280.910156 421.230469 296.269531 429.058594 311.46875 L 482.230469 311.46875 C 464.65625 276.261719 447.085938 241.074219 429.28125 206.007812 L 374.683594 206.007812 C 335.144531 285.574219 295.4375 365.0625 255.792969 444.582031 C 254.707031 446.75 253.878906 449.054688 252.621094 452.039062 C 255.949219 452.210938 258.035156 452.402344 260.121094 452.417969 Z M 260.121094 452.417969 " fill-opacity="1" fill-rule="nonzero"/><g clip-path="url(#2c23d0f3bf)"><path fill="#000000" d="M 592.757812 531.824219 C 581.007812 508.207031 569.960938 486.035156 558.398438 462.84375 C 556.972656 465.199219 556.140625 466.078125 555.859375 467.113281 C 551.636719 482.957031 542.554688 495.613281 530.488281 506.371094 C 529.625 507.140625 528.636719 507.988281 528.199219 509.027344 C 527.023438 511.757812 533.515625 524.964844 538.648438 531.839844 L 592.757812 531.839844 Z M 592.757812 531.824219 " fill-opacity="1" fill-rule="nonzero"/></g><g fill="#000000" fill-opacity="1"><g transform="translate(195.5939, 590.145878)"><g><path d="M 27.140625 -6.75 L 12.890625 -6.75 L 10.609375 0 L 0.875 0 L 14.6875 -38.171875 L 25.453125 -38.171875 L 39.265625 0 L 29.421875 0 Z M 24.734375 -13.921875 L 20.015625 -27.890625 L 15.328125 -13.921875 Z M 24.734375 -13.921875 "/></g></g></g><g fill="#000000" fill-opacity="1"><g transform="translate(235.668269, 590.145878)"><g><path d="M 26.484375 -19.578125 C 28.691406 -19.109375 30.46875 -18.007812 31.8125 -16.28125 C 33.15625 -14.5625 33.828125 -12.597656 33.828125 -10.390625 C 33.828125 -7.191406 32.710938 -4.660156 30.484375 -2.796875 C 28.253906 -0.929688 25.144531 0 21.15625 0 L 3.375 0 L 3.375 -38.171875 L 20.546875 -38.171875 C 24.429688 -38.171875 27.46875 -37.28125 29.65625 -35.5 C 31.851562 -33.726562 32.953125 -31.320312 32.953125 -28.28125 C 32.953125 -26.03125 32.363281 -24.160156 31.1875 -22.671875 C 30.007812 -21.179688 28.441406 -20.148438 26.484375 -19.578125 Z M 12.671875 -22.734375 L 18.765625 -22.734375 C 20.285156 -22.734375 21.453125 -23.066406 22.265625 -23.734375 C 23.078125 -24.398438 23.484375 -25.390625 23.484375 -26.703125 C 23.484375 -28.003906 23.078125 -29 22.265625 -29.6875 C 21.453125 -30.375 20.285156 -30.71875 18.765625 -30.71875 L 12.671875 -30.71875 Z M 19.515625 -7.5 C 21.078125 -7.5 22.285156 -7.851562 23.140625 -8.5625 C 23.992188 -9.269531 24.421875 -10.296875 24.421875 -11.640625 C 24.421875 -12.972656 23.972656 -14.019531 23.078125 -14.78125 C 22.191406 -15.550781 20.96875 -15.9375 19.40625 -15.9375 L 12.671875 -15.9375 L 12.671875 -7.5 Z M 19.515625 -7.5 "/></g></g></g><g fill="#000000" fill-opacity="1"><g transform="translate(271.501389, 590.145878)"><g><path d="M 26.484375 -19.578125 C 28.691406 -19.109375 30.46875 -18.007812 31.8125 -16.28125 C 33.15625 -14.5625 33.828125 -12.597656 33.828125 -10.390625 C 33.828125 -7.191406 32.710938 -4.660156 30.484375 -2.796875 C 28.253906 -0.929688 25.144531 0 21.15625 0 L 3.375 0 L 3.375 -38.171875 L 20.546875 -38.171875 C 24.429688 -38.171875 27.46875 -37.28125 29.65625 -35.5 C 31.851562 -33.726562 32.953125 -31.320312 32.953125 -28.28125 C 32.953125 -26.03125 32.363281 -24.160156 31.1875 -22.671875 C 30.007812 -21.179688 28.441406 -20.148438 26.484375 -19.578125 Z M 12.671875 -22.734375 L 18.765625 -22.734375 C 20.285156 -22.734375 21.453125 -23.066406 22.265625 -23.734375 C 23.078125 -24.398438 23.484375 -25.390625 23.484375 -26.703125 C 23.484375 -28.003906 23.078125 -29 22.265625 -29.6875 C 21.453125 -30.375 20.285156 -30.71875 18.765625 -30.71875 L 12.671875 -30.71875 Z M 19.515625 -7.5 C 21.078125 -7.5 22.285156 -7.851562 23.140625 -8.5625 C 23.992188 -9.269531 24.421875 -10.296875 24.421875 -11.640625 C 24.421875 -12.972656 23.972656 -14.019531 23.078125 -14.78125 C 22.191406 -15.550781 20.96875 -15.9375 19.40625 -15.9375 L 12.671875 -15.9375 L 12.671875 -7.5 Z M 19.515625 -7.5 "/></g></g></g><g fill="#000000" fill-opacity="1"><g transform="translate(307.334509, 590.145878)"><g><path d="M 27.140625 -6.75 L 12.890625 -6.75 L 10.609375 0 L 0.875 0 L 14.6875 -38.171875 L 25.453125 -38.171875 L 39.265625 0 L 29.421875 0 Z M 24.734375 -13.921875 L 20.015625 -27.890625 L 15.328125 -13.921875 Z M 24.734375 -13.921875 "/></g></g></g><g fill="#000000" fill-opacity="1"><g transform="translate(347.408879, 590.145878)"><g><path d="M 17.1875 0.375 C 14.394531 0.375 11.890625 -0.078125 9.671875 -0.984375 C 7.460938 -1.890625 5.695312 -3.226562 4.375 -5 C 3.050781 -6.78125 2.351562 -8.921875 2.28125 -11.421875 L 12.1875 -11.421875 C 12.320312 -10.003906 12.804688 -8.921875 13.640625 -8.171875 C 14.484375 -7.429688 15.570312 -7.0625 16.90625 -7.0625 C 18.289062 -7.0625 19.378906 -7.378906 20.171875 -8.015625 C 20.972656 -8.648438 21.375 -9.53125 21.375 -10.65625 C 21.375 -11.601562 21.054688 -12.382812 20.421875 -13 C 19.785156 -13.613281 19.003906 -14.117188 18.078125 -14.515625 C 17.148438 -14.910156 15.835938 -15.363281 14.140625 -15.875 C 11.671875 -16.632812 9.65625 -17.394531 8.09375 -18.15625 C 6.539062 -18.914062 5.203125 -20.039062 4.078125 -21.53125 C 2.953125 -23.019531 2.390625 -24.957031 2.390625 -27.34375 C 2.390625 -30.894531 3.675781 -33.675781 6.25 -35.6875 C 8.820312 -37.707031 12.175781 -38.71875 16.3125 -38.71875 C 20.519531 -38.71875 23.910156 -37.707031 26.484375 -35.6875 C 29.054688 -33.675781 30.429688 -30.878906 30.609375 -27.296875 L 20.546875 -27.296875 C 20.472656 -28.523438 20.019531 -29.492188 19.1875 -30.203125 C 18.351562 -30.910156 17.285156 -31.265625 15.984375 -31.265625 C 14.859375 -31.265625 13.953125 -30.960938 13.265625 -30.359375 C 12.578125 -29.765625 12.234375 -28.90625 12.234375 -27.78125 C 12.234375 -26.550781 12.8125 -25.59375 13.96875 -24.90625 C 15.132812 -24.21875 16.945312 -23.472656 19.40625 -22.671875 C 21.875 -21.835938 23.878906 -21.039062 25.421875 -20.28125 C 26.960938 -19.519531 28.296875 -18.414062 29.421875 -16.96875 C 30.546875 -15.519531 31.109375 -13.648438 31.109375 -11.359375 C 31.109375 -9.191406 30.550781 -7.21875 29.4375 -5.4375 C 28.332031 -3.65625 26.726562 -2.238281 24.625 -1.1875 C 22.53125 -0.144531 20.050781 0.375 17.1875 0.375 Z M 17.1875 0.375 "/></g></g></g><g fill="#000000" fill-opacity="1"><g transform="translate(380.849497, 590.145878)"><g/></g></g><g fill="#000000" fill-opacity="1"><g transform="translate(392.376993, 590.145878)"><g><path d="M 17.671875 -38.171875 C 21.691406 -38.171875 25.207031 -37.375 28.21875 -35.78125 C 31.226562 -34.1875 33.554688 -31.945312 35.203125 -29.0625 C 36.859375 -26.175781 37.6875 -22.847656 37.6875 -19.078125 C 37.6875 -15.347656 36.859375 -12.03125 35.203125 -9.125 C 33.554688 -6.226562 31.21875 -3.984375 28.1875 -2.390625 C 25.164062 -0.796875 21.660156 0 17.671875 0 L 3.375 0 L 3.375 -38.171875 Z M 17.078125 -8.046875 C 20.585938 -8.046875 23.320312 -9.003906 25.28125 -10.921875 C 27.238281 -12.847656 28.21875 -15.566406 28.21875 -19.078125 C 28.21875 -22.597656 27.238281 -25.335938 25.28125 -27.296875 C 23.320312 -29.253906 20.585938 -30.234375 17.078125 -30.234375 L 12.671875 -30.234375 L 12.671875 -8.046875 Z M 17.078125 -8.046875 "/></g></g></g><g fill="#000000" fill-opacity="1"><g transform="translate(431.907608, 590.145878)"><g><path d="M 12.671875 -30.71875 L 12.671875 -23 L 25.125 -23 L 25.125 -15.828125 L 12.671875 -15.828125 L 12.671875 -7.453125 L 26.75 -7.453125 L 26.75 0 L 3.375 0 L 3.375 -38.171875 L 26.75 -38.171875 L 26.75 -30.71875 Z M 12.671875 -30.71875 "/></g></g></g><g fill="#000000" fill-opacity="1"><g transform="translate(461.324461, 590.145878)"><g><path d="M 39.203125 -38.171875 L 25.671875 0 L 14.03125 0 L 0.484375 -38.171875 L 10.390625 -38.171875 L 19.84375 -9.359375 L 29.359375 -38.171875 Z M 39.203125 -38.171875 "/></g></g></g><g fill="#000000" fill-opacity="1"><g transform="translate(501.0182, 590.145878)"><g/></g></g><g fill="#000000" fill-opacity="1"><g transform="translate(512.545696, 590.145878)"><g><path d="M 12.671875 -7.171875 L 24.84375 -7.171875 L 24.84375 0 L 3.375 0 L 3.375 -38.171875 L 12.671875 -38.171875 Z M 12.671875 -7.171875 "/></g></g></g><g fill="#000000" fill-opacity="1"><g transform="translate(538.482585, 590.145878)"><g><path d="M 27.140625 -6.75 L 12.890625 -6.75 L 10.609375 0 L 0.875 0 L 14.6875 -38.171875 L 25.453125 -38.171875 L 39.265625 0 L 29.421875 0 Z M 24.734375 -13.921875 L 20.015625 -27.890625 L 15.328125 -13.921875 Z M 24.734375 -13.921875 "/></g></g></g><g fill="#000000" fill-opacity="1"><g transform="translate(578.556954, 590.145878)"><g><path d="M 26.484375 -19.578125 C 28.691406 -19.109375 30.46875 -18.007812 31.8125 -16.28125 C 33.15625 -14.5625 33.828125 -12.597656 33.828125 -10.390625 C 33.828125 -7.191406 32.710938 -4.660156 30.484375 -2.796875 C 28.253906 -0.929688 25.144531 0 21.15625 0 L 3.375 0 L 3.375 -38.171875 L 20.546875 -38.171875 C 24.429688 -38.171875 27.46875 -37.28125 29.65625 -35.5 C 31.851562 -33.726562 32.953125 -31.320312 32.953125 -28.28125 C 32.953125 -26.03125 32.363281 -24.160156 31.1875 -22.671875 C 30.007812 -21.179688 28.441406 -20.148438 26.484375 -19.578125 Z M 12.671875 -22.734375 L 18.765625 -22.734375 C 20.285156 -22.734375 21.453125 -23.066406 22.265625 -23.734375 C 23.078125 -24.398438 23.484375 -25.390625 23.484375 -26.703125 C 23.484375 -28.003906 23.078125 -29 22.265625 -29.6875 C 21.453125 -30.375 20.285156 -30.71875 18.765625 -30.71875 L 12.671875 -30.71875 Z M 19.515625 -7.5 C 21.078125 -7.5 22.285156 -7.851562 23.140625 -8.5625 C 23.992188 -9.269531 24.421875 -10.296875 24.421875 -11.640625 C 24.421875 -12.972656 23.972656 -14.019531 23.078125 -14.78125 C 22.191406 -15.550781 20.96875 -15.9375 19.40625 -15.9375 L 12.671875 -15.9375 L 12.671875 -7.5 Z M 19.515625 -7.5 "/></g></g></g></svg>